<?xml version="1.0" encoding="iso-8859-1"?>
<!-- Generator: Adobe Illustrator 19.0.0, SVG Export Plug-In . SVG Version: 6.00 Build 0)  -->
<svg version="1.1" id="Layer_1" xmlns="http://www.w3.org/2000/svg" xmlns:xlink="http://www.w3.org/1999/xlink" x="0px" y="0px"
	 viewBox="0 0 484.834 484.834" style="enable-background:new 0 0 484.834 484.834;" xml:space="preserve">
<g>
	<path style="fill:#BDDBFF;" d="M238.063,88.063c-12.659,0-24.991,1.55-36.81,4.467c-55.463,13.693-99.559,57.644-112.534,114.336
		C38.476,215.042,0,258.742,0,311.258c0,58.318,47.445,105.763,105.763,105.763h132.3V88.063z"/>
	<path style="fill:#9BC9FF;" d="M387.407,206.867c-15.739-68.772-77.271-118.804-149.343-118.804v328.958h132.3
		c58.318,0,105.763-47.445,105.763-105.763c0-20.127-5.657-38.956-15.457-54.99C444.9,230.467,418.394,211.909,387.407,206.867z"/>
	<path style="fill:#FFCD00;" d="M456.492,170.685c-2.5-11.828-7.17-22.864-13.573-32.672l20.069-20.069l-28.285-28.284
		l-20.069,20.069c-9.808-6.403-20.843-11.073-32.672-13.573V67.813h-40v28.368c-10.252,2.174-20.11,6.001-29.145,11.328
		c36.456,20.387,63.9,55.294,74.122,97.413l2.172,2.242c22.251,3.998,42.107,14.976,57.214,30.581
		c4.713-8.46,8.135-17.58,10.14-27.061h28.368v-40H456.492z"/>
</g>
<g>
</g>
<g>
</g>
<g>
</g>
<g>
</g>
<g>
</g>
<g>
</g>
<g>
</g>
<g>
</g>
<g>
</g>
<g>
</g>
<g>
</g>
<g>
</g>
<g>
</g>
<g>
</g>
<g>
</g>
</svg>
