<?xml version="1.0" encoding="iso-8859-1"?>
<!-- Generator: Adobe Illustrator 19.0.0, SVG Export Plug-In . SVG Version: 6.00 Build 0)  -->
<svg version="1.1" id="Layer_1" xmlns="http://www.w3.org/2000/svg" xmlns:xlink="http://www.w3.org/1999/xlink" x="0px" y="0px"
	 viewBox="0 0 476.127 476.127" style="enable-background:new 0 0 476.127 476.127;" xml:space="preserve">
<g>
	<path style="fill:#D1E7F8;" d="M173.551,472.49c-11.028,0-20-8.972-20-20s8.972-20,20-20s20,8.972,20,20
		S184.579,472.49,173.551,472.49z"/>
	<path style="fill:#BDDBFF;" d="M311.076,472.49c-11.028,0-20-8.972-20-20s8.972-20,20-20c11.028,0,20,8.972,20,20
		S322.104,472.49,311.076,472.49z"/>
	<path style="fill:#D1E7F8;" d="M104.788,402.49c-11.028,0-20-8.972-20-20s8.972-20,20-20s20,8.972,20,20
		S115.816,402.49,104.788,402.49z"/>
	<path style="fill:#BDDBFF;" d="M379.839,402.49c-11.028,0-20-8.972-20-20s8.972-20,20-20c11.028,0,20,8.972,20,20
		S390.867,402.49,379.839,402.49z"/>
	<path style="fill:#BDDBFF;" d="M242.313,362.49c-11.028,0-20,8.972-20,20s8.972,20,20,20s20-8.972,20-20
		S253.341,362.49,242.313,362.49z"/>
	<path style="fill:#BDDBFF;" d="M238.063,3.637c-12.659,0-24.991,1.55-36.81,4.467C145.791,21.797,101.695,65.748,88.72,122.44
		C38.476,130.616,0,174.315,0,226.831c0,58.318,47.445,105.763,105.763,105.763h132.3V3.637z"/>
	<path style="fill:#9BC9FF;" d="M387.407,122.44C371.667,53.668,310.135,3.637,238.063,3.637v328.958h132.3
		c58.318,0,105.763-47.445,105.763-105.763c0-20.127-5.657-38.956-15.457-54.99C444.9,146.04,418.394,127.482,387.407,122.44z"/>
</g>
<g>
</g>
<g>
</g>
<g>
</g>
<g>
</g>
<g>
</g>
<g>
</g>
<g>
</g>
<g>
</g>
<g>
</g>
<g>
</g>
<g>
</g>
<g>
</g>
<g>
</g>
<g>
</g>
<g>
</g>
</svg>
