<?xml version="1.0" encoding="iso-8859-1"?>
<!-- Generator: Adobe Illustrator 19.0.0, SVG Export Plug-In . SVG Version: 6.00 Build 0)  -->
<svg version="1.1" id="Layer_1" xmlns="http://www.w3.org/2000/svg" xmlns:xlink="http://www.w3.org/1999/xlink" x="0px" y="0px"
	 viewBox="0 0 476.127 476.127" style="enable-background:new 0 0 476.127 476.127;" xml:space="preserve">
<g>
	<path style="fill:#ACABB1;" d="M238.063,2.689c-12.659,0-24.991,1.55-36.81,4.467C145.791,20.849,101.695,64.8,88.72,121.493
		C38.476,129.668,0,173.367,0,225.883c0,58.318,47.445,105.763,105.763,105.763h132.3V2.689z"/>
	<path style="fill:#898890;" d="M387.407,121.493C371.667,52.72,310.135,2.689,238.063,2.689v328.958h132.3
		c58.318,0,105.763-47.445,105.763-105.763c0-20.127-5.657-38.956-15.457-54.99C444.9,145.092,418.394,126.535,387.407,121.493z"/>
	<polygon style="fill:#FFDA44;" points="155.455,473.438 115.455,473.438 115.455,368.646 155.13,368.646 155.13,331.646 
		195.13,331.646 195.13,408.646 155.455,408.646 	"/>
	<polygon style="fill:#FFCD00;" points="273.024,473.438 233.024,473.438 233.025,368.646 272.7,368.646 272.701,331.646 
		312.701,331.646 312.7,408.646 273.025,408.646 	"/>
</g>
<g>
</g>
<g>
</g>
<g>
</g>
<g>
</g>
<g>
</g>
<g>
</g>
<g>
</g>
<g>
</g>
<g>
</g>
<g>
</g>
<g>
</g>
<g>
</g>
<g>
</g>
<g>
</g>
<g>
</g>
</svg>
